<?xml version="1.0" standalone="no"?>
<!DOCTYPE svg PUBLIC "-//W3C//DTD SVG 1.1//EN" "http://www.w3.org/Graphics/SVG/1.1/DTD/svg11.dtd" >
<svg xmlns="http://www.w3.org/2000/svg">
<metadata></metadata>
<defs>
<font id="gobold_italicitalic" horiz-adv-x="1053" >
<font-face units-per-em="2048" ascent="1638" descent="-410" />
<missing-glyph horiz-adv-x="508" />
<glyph horiz-adv-x="0" />
<glyph unicode="&#xd;" horiz-adv-x="508" />
<glyph unicode=" "  horiz-adv-x="508" />
<glyph unicode="&#x09;" horiz-adv-x="508" />
<glyph unicode="&#xa0;" horiz-adv-x="508" />
<glyph unicode="!" horiz-adv-x="565" d="M120 0l69 325h325l-69 -325h-325zM254 530l283 1432h325l-325 -1432h-283z" />
<glyph unicode="&#x22;" horiz-adv-x="968" d="M433 1311l105 652h296l-173 -652h-228zM865 1311l105 652h296l-173 -652h-228z" />
<glyph unicode="#" horiz-adv-x="1349" d="M108 0l300 730h-173l33 153h204l105 257h-213l33 153h244l275 670h237l-275 -670h245l275 670h237l-275 -670h184l-33 -153h-215l-105 -257h224l-33 -153h-255l-300 -730h-237l300 730h-245l-300 -730h-237zM709 883h245l105 257h-245z" />
<glyph unicode="$" d="M192 274q0 63 16 139l56 263h283l-56 -263q-5 -25 -5 -45q0 -88 100 -88q123 0 151 133l47 223q4 17 4 35q0 131 -197 297q-179 151 -179 353q0 52 12 108l39 184q76 358 376 404l37 176h232l-37 -176q221 -36 221 -266q0 -62 -16 -138l-56 -264h-284l56 264q5 25 5 45 q0 87 -99 88h-2q-122 0 -150 -133l-38 -178q-3 -15 -3 -30q0 -123 200 -291q180 -151 180 -351q0 -49 -11 -102l-53 -248q-76 -359 -377 -404l-51 -239h-232l51 239q-220 36 -220 265z" />
<glyph unicode="%" horiz-adv-x="1697" d="M345 1001q0 35 9 78l150 704q52 242 291 242q195 0 195 -163q0 -36 -9 -79l-150 -704q-51 -242 -289 -242q-197 0 -197 164zM383 0l1140 1963h175l-1139 -1963h-176zM517 1053q0 -52 60 -52q72 0 88 78l150 704q3 15 3 27q0 51 -58 51h-2q-71 0 -88 -78l-150 -704 q-3 -14 -3 -26zM1138 163q0 36 9 80l149 704q52 242 290 242q196 0 196 -163q0 -36 -9 -79l-149 -704q-52 -242 -291 -242h-2q-193 0 -193 162zM1310 216q0 -51 58 -51q73 0 90 78l149 704q3 15 3 27q0 51 -58 51h-2q-71 0 -88 -78l-149 -704q-3 -15 -3 -27z" />
<glyph unicode="&#x26;" horiz-adv-x="1183" d="M191 269q0 64 17 144l70 327q41 193 213 273q-106 62 -106 191q0 38 9 82l62 295q82 383 404 410q44 3 89 3q38 0 78 -2q259 -18 259 -268q0 -64 -17 -143l-18 -84h-283l18 84q7 33 7 58q0 65 -49 73q-23 4 -50 4q-23 0 -49 -3q-80 -9 -106 -132l-62 -295q-4 -21 -4 -39 q0 -62 54 -86q18 -8 44 -9h124l29 134h283l-29 -134h180l-59 -279h-180l-98 -460q-84 -396 -432 -411q-35 -1 -66 -1q-61 0 -104 5q-228 28 -228 263zM483 349q0 -47 26 -59q22 -11 75 -11q12 0 26 1q101 4 128 133l98 460h-124q-26 -1 -48 -9q-83 -30 -103 -124l-70 -327 q-8 -37 -8 -64z" />
<glyph unicode="'" horiz-adv-x="536" d="M433 1311l105 652h296l-173 -652h-228z" />
<glyph unicode="(" horiz-adv-x="544" d="M140 31q0 61 16 135l347 1632q86 407 481 412l-49 -232q-112 -3 -140 -134l-366 -1725q-6 -26 -6 -48q0 -83 88 -85l-49 -233q-322 4 -322 278z" />
<glyph unicode=")" horiz-adv-x="544" d="M-23 -247l50 233q111 3 139 133l366 1725q6 27 6 48q0 84 -88 86l49 232q322 -4 322 -279q0 -60 -15 -133l-347 -1632q-87 -408 -482 -413z" />
<glyph unicode="*" horiz-adv-x="1012" d="M474 1655q0 11 3 24q6 27 24 61q51 97 119 97q30 0 64 -19q54 -32 144 -159q-49 144 -49 212q0 7 1 14q1 12 4 23q22 104 148 105h4q107 0 107 -73q0 -12 -3 -26q-3 -16 -10 -34q-27 -69 -143 -219q153 133 220 161q37 16 65 16q67 0 79 -95q2 -14 2 -28q0 -20 -4 -37 q-17 -81 -121 -96q-16 -2 -37 -2q-70 0 -196 26q150 -78 184 -127q24 -32 24 -63q0 -8 -2 -16q-11 -51 -85 -98q-58 -37 -98 -37q-55 0 -75 71q-9 32 -9 93q0 57 8 141q-62 -182 -107 -240q-49 -64 -103 -64q-38 0 -80 34q-48 41 -48 83q0 7 2 15q9 41 62 84q60 49 232 120 q-136 -25 -206 -25q-27 0 -44 4q-76 15 -76 74z" />
<glyph unicode="+" horiz-adv-x="1047" d="M304 865l50 233h288l61 287h232l-61 -287h287l-50 -233h-287l-61 -287h-232l61 287h-288z" />
<glyph unicode="," horiz-adv-x="591" d="M110 -327l128 327h-118l69 325h351l-61 -287l-186 -365h-183z" />
<glyph unicode="-" horiz-adv-x="786" d="M229 841l50 233h686l-50 -233h-686z" />
<glyph unicode="." horiz-adv-x="565" d="M120 0l69 325h325l-69 -325h-325z" />
<glyph unicode="/" horiz-adv-x="748" d="M60 0l808 1963h237l-808 -1963h-237z" />
<glyph unicode="0" d="M185 247q0 61 16 134l255 1200q87 413 493 413q335 0 335 -280q0 -60 -15 -133l-255 -1200q-88 -412 -495 -412q-334 0 -334 278zM478 335q0 -87 100 -87q124 0 153 133l255 1200q5 25 5 45q0 88 -100 88h-2q-122 0 -150 -133l-255 -1200q-6 -25 -6 -46z" />
<glyph unicode="1" horiz-adv-x="1073" d="M130 0l59 279h265l299 1404h-265l59 279h548l-358 -1683h265l-59 -279h-813z" />
<glyph unicode="2" horiz-adv-x="1073" d="M130 0l89 421q57 265 361 454q305 189 334 321l82 385q5 25 5 45q0 88 -99 88h-2q-123 0 -151 -133l-56 -263h-283l56 263q88 413 494 413q335 0 335 -279q0 -61 -16 -134l-83 -392q-58 -270 -363 -460q-305 -189 -336 -332l-25 -118h530l-59 -279h-813z" />
<glyph unicode="3" horiz-adv-x="1073" d="M194 234q0 65 17 148l56 263h280l-56 -264q-5 -26 -5 -47q0 -90 102 -90q127 0 156 137l76 358q8 38 8 66q0 48 -26 61q-22 10 -72 10h-96l60 279h118q40 0 62 12q42 21 63 120l62 292q8 38 8 66q0 48 -26 61q-22 10 -75 10q-14 0 -29 -1q-103 -4 -131 -136l-56 -261 h-280l56 263q61 284 244 369q127 60 248 60q112 0 218 -52q121 -57 121 -229q0 -65 -18 -148l-63 -296q-41 -193 -213 -273q106 -62 106 -191q0 -38 -9 -82l-76 -357q-54 -256 -206 -350q-96 -59 -273 -63h-24q-156 0 -233 50q-94 62 -94 215z" />
<glyph unicode="4" horiz-adv-x="1073" d="M154 481l53 248l758 1233h361l-256 -1202h109l-59 -279h-109l-102 -481h-283l102 481h-574zM492 760h295l160 749z" />
<glyph unicode="5" horiz-adv-x="1073" d="M194 240q0 63 17 141l49 232h283l-49 -232q-6 -28 -6 -50q0 -80 77 -83h20q59 0 86 10q48 19 70 123l119 557q8 37 8 63q0 48 -26 60q-22 11 -75 11q-13 0 -27 -1q-87 -4 -113 -77l-19 -79h-283l264 1047h771l-59 -279h-499l-110 -422q90 83 214 83q17 0 34 -2 q146 -13 200 -119q23 -44 23 -119q0 -70 -20 -166l-119 -557q-79 -372 -384 -407q-46 -5 -106 -5q-31 0 -65 1q-275 12 -275 270z" />
<glyph unicode="6" horiz-adv-x="1073" d="M195 247q0 61 16 134l255 1200q87 413 493 413q335 0 335 -280q0 -60 -15 -133l-56 -263h-283l56 263q5 25 5 45q0 88 -100 88h-2q-122 0 -150 -133l-102 -477q94 71 210 71q21 0 43 -2q133 -14 192 -97q34 -48 34 -139q0 -70 -20 -166l-82 -390q-88 -412 -495 -412 q-334 0 -334 278zM488 335q0 -87 100 -87q124 0 153 133l82 390q8 38 8 65q0 47 -25 58q-22 11 -75 11q-13 0 -27 -1q-100 -4 -128 -133l-82 -390q-6 -25 -6 -46z" />
<glyph unicode="7" horiz-adv-x="1073" d="M272 0l736 1683h-529l59 279h837l-43 -201l-770 -1761h-290z" />
<glyph unicode="8" horiz-adv-x="1073" d="M194 234q0 65 17 148l76 357q41 193 213 273q-106 62 -106 191q0 38 9 82l63 296q61 284 244 369q127 60 248 60q112 0 218 -52q121 -57 121 -229q0 -65 -18 -148l-63 -296q-41 -193 -213 -273q106 -62 106 -191q0 -38 -9 -82l-76 -357q-54 -256 -206 -350 q-96 -59 -273 -63h-24q-156 0 -233 50q-94 62 -94 215zM486 334q0 -90 102 -90q127 0 156 137l76 358q8 38 8 66q0 48 -26 61q-22 10 -75 10q-14 0 -29 -1q-103 -4 -131 -136l-76 -358q-5 -26 -5 -47zM679 1240q0 -90 102 -90q127 0 156 137l62 292q8 38 8 66q0 48 -26 61 q-22 10 -75 10q-14 0 -29 -1q-103 -4 -131 -136l-62 -292q-5 -26 -5 -47z" />
<glyph unicode="9" horiz-adv-x="1073" d="M195 247q0 61 16 134l56 264h283l-56 -264q-5 -25 -5 -45q0 -87 99 -88h2q122 0 151 133l101 478q-96 -72 -213 -72q-19 0 -40 2q-133 14 -192 97q-34 49 -34 140q0 70 20 165l83 390q87 412 494 413q334 0 334 -280q0 -60 -15 -133l-255 -1200q-88 -412 -495 -412 q-334 0 -334 278zM658 1128q0 -48 26 -60q20 -10 72 -10q13 0 29 1q100 3 128 132l83 390q5 25 5 45q0 88 -100 88q-124 0 -152 -133l-83 -390q-8 -37 -8 -63z" />
<glyph unicode=":" horiz-adv-x="564" d="M120 0l69 325h324l-69 -325h-324zM334 1005l68 324h324l-68 -324h-324z" />
<glyph unicode=";" horiz-adv-x="591" d="M110 -327l128 327h-118l69 325h351l-61 -287l-186 -365h-183zM333 1005l69 324h325l-69 -324h-325z" />
<glyph unicode="&#x3c;" horiz-adv-x="1047" d="M296 829l62 291l903 452l-59 -275l-655 -320l521 -311l-58 -274z" />
<glyph unicode="=" horiz-adv-x="1047" d="M255 633l49 232h807l-49 -232h-807zM353 1096l50 233h807l-50 -233h-807z" />
<glyph unicode="&#x3e;" horiz-adv-x="1047" d="M203 392l58 274l653 311l-519 320l59 275l711 -452l-62 -291z" />
<glyph unicode="?" d="M236 0l69 325h325l-69 -325h-325zM368 547l15 69q52 245 293 442t270 333l40 190q5 25 5 45q0 88 -99 88h-2q-123 0 -151 -133l-56 -263h-283l56 263q88 413 495 413q334 0 334 -279q0 -60 -16 -134l-42 -197q-53 -249 -294 -447t-272 -345l-10 -45h-283z" />
<glyph unicode="@" horiz-adv-x="1483" d="M234 410q0 84 22 186l171 801q129 608 741 608q506 0 506 -408q0 -85 -22 -187l-22 -107h-1l-17 -79q-58 -272 -325 -272h-109l-73 -344q-58 -272 -326 -272q-219 0 -219 184q0 39 10 88l55 257q57 271 324 271h82l56 262q3 16 3 29q0 58 -66 58h-2q-80 0 -98 -87 l-15 -70h-186l15 70q58 271 325 271q220 0 220 -183q0 -40 -10 -88l-56 -262h109q81 0 100 88l39 186q15 71 15 129q0 283 -351 283q-425 0 -515 -425l-171 -801q-15 -70 -15 -128q0 -284 353 -284q424 0 514 424l9 43h187l-9 -43q-129 -607 -740 -607q-508 0 -508 409z M736 578q0 -58 66 -58q82 0 101 88l73 344l-82 1q-81 0 -99 -88l-55 -257q-4 -17 -4 -30z" />
<glyph unicode="A" horiz-adv-x="1051" d="M40 0l239 693l470 1269h388l-70 -1266l-56 -696h-286l33 416h-289l-144 -416h-285zM565 696h216l65 816z" />
<glyph unicode="B" horiz-adv-x="1043" d="M130 0l417 1962l436 -1q306 0 306 -271q0 -63 -17 -141l-62 -295q-41 -193 -213 -273q106 -61 106 -189q0 -39 -10 -84l-62 -296q-88 -411 -465 -411q-6 0 -18 -1h-418zM472 279h124q123 0 152 133l62 296q4 21 4 39q0 62 -54 85q-20 9 -79 9h-89zM651 1121h89q59 0 83 8 q84 31 104 125l62 295q6 26 6 46q0 88 -100 88h-124z" />
<glyph unicode="C" horiz-adv-x="1023" d="M175 247q0 60 16 134l255 1200q87 412 493 412q335 0 335 -280q0 -59 -15 -132l-56 -264h-283l56 264q5 24 5 44q0 88 -100 89h-2q-122 0 -150 -133l-255 -1200q-5 -25 -5 -45q0 -88 100 -88q124 0 152 133l56 264h283l-56 -264q-88 -412 -495 -413q-334 0 -334 279z" />
<glyph unicode="D" d="M130 0l417 1962l436 -1q306 0 306 -271q0 -63 -17 -141l-241 -1137q-88 -411 -465 -411q-6 0 -18 -1h-418zM472 279h124q123 0 152 133l241 1137q6 26 6 46q0 88 -100 88h-124z" />
<glyph unicode="E" horiz-adv-x="944" d="M130 0l417 1962h734l-59 -279h-451l-120 -562h388l-59 -280h-388l-120 -562h451l-59 -279h-734z" />
<glyph unicode="F" horiz-adv-x="924" d="M130 0l417 1962h734l-59 -279h-451l-120 -562h388l-59 -280h-388l-179 -841h-283z" />
<glyph unicode="G" horiz-adv-x="1033" d="M175 247q0 60 16 134l255 1200q87 412 493 412q335 0 335 -280q0 -59 -15 -132l-56 -264h-283l56 264q5 24 5 44q0 88 -100 89h-2q-122 0 -150 -133l-255 -1200q-5 -25 -5 -45q0 -88 100 -88q124 0 152 133l98 460h-143l59 280h426l-157 -740q-88 -412 -495 -413 q-334 0 -334 279z" />
<glyph unicode="H" horiz-adv-x="1073" d="M130 0l417 1962h283l-179 -841h247l179 841h283l-417 -1962h-283l179 841h-247l-179 -841h-283z" />
<glyph unicode="I" horiz-adv-x="553" d="M135 0l417 1962h283l-417 -1962h-283z" />
<glyph unicode="J" horiz-adv-x="973" d="M95 248q0 60 16 133l24 116h283l-24 -116q-5 -25 -5 -46q0 -87 100 -87q123 0 152 133l336 1581h283l-336 -1581q-88 -413 -494 -413q-335 1 -335 280z" />
<glyph unicode="K" horiz-adv-x="1057" d="M130 0l417 1962h283l-186 -873l487 873h303l-582 -981l165 -981h-303l-116 872l-185 -872h-283z" />
<glyph unicode="L" horiz-adv-x="904" d="M130 0l417 1962h283l-358 -1683h451l-59 -279h-734z" />
<glyph unicode="M" horiz-adv-x="1488" d="M130 0l417 1962h283l47 -1344l615 1344h283l-417 -1962h-271l234 1101l-476 -1101h-192l-15 1101l-234 -1101h-274z" />
<glyph unicode="N" horiz-adv-x="1073" d="M130 0l417 1962h283l26 -1138l241 1133l263 5l-417 -1962h-283l-24 1102l-234 -1102h-272z" />
<glyph unicode="O" horiz-adv-x="1033" d="M175 247q0 60 16 134l255 1200q87 412 493 412q335 0 335 -280q0 -59 -15 -132l-255 -1200q-88 -412 -495 -413q-334 0 -334 279zM469 336q0 -88 100 -88q124 0 152 133l255 1200q5 24 5 44q0 88 -100 89h-2q-122 0 -150 -133l-255 -1200q-5 -25 -5 -45z" />
<glyph unicode="P" horiz-adv-x="999" d="M130 0l417 1962l412 -1q306 0 306 -271q0 -63 -17 -141l-62 -295q-65 -304 -355 -392q-69 -21 -193 -21h-46l-179 -841h-283zM651 1121h65q59 0 83 8q84 31 104 125l62 295q6 26 6 46q0 88 -100 88h-100z" />
<glyph unicode="Q" horiz-adv-x="1033" d="M175 244q0 62 16 137l255 1200q87 412 493 412q335 0 335 -280q0 -59 -15 -132l-255 -1200q-78 -368 -397 -407v-3q0 -61 296 -63l-50 -236q-251 0 -334 49q-81 46 -81 163q0 39 9 87q-272 20 -272 273zM469 336q0 -88 100 -88q124 0 152 133l255 1200q5 24 5 44 q0 88 -100 89h-2q-122 0 -150 -133l-255 -1200q-5 -25 -5 -45z" />
<glyph unicode="R" horiz-adv-x="1044" d="M130 0l417 1962l412 -1q306 0 306 -271q0 -63 -17 -141l-62 -295q-56 -259 -296 -341l124 -913h-310l-72 863l-37 -5l-182 -858h-283zM651 1121h65q59 0 83 8q84 31 104 125l62 295q6 26 6 46q0 88 -100 88h-100z" />
<glyph unicode="S" horiz-adv-x="1033" d="M175 248q0 60 16 133l56 264h283l-56 -264q-5 -25 -5 -46q0 -87 100 -87q123 0 152 133l47 224q4 17 4 34q0 130 -198 298q-179 150 -179 352q0 52 12 108l39 184q87 412 493 412q335 0 335 -280q0 -59 -15 -132l-56 -264h-283l56 264q5 24 5 44q0 88 -100 89h-2 q-122 0 -150 -133l-38 -178q-3 -14 -3 -30q0 -122 200 -291q179 -151 179 -350q0 -50 -11 -103l-52 -248q-88 -413 -494 -413q-335 1 -335 280z" />
<glyph unicode="T" horiz-adv-x="913" d="M315 0l358 1683h-265l59 279h813l-59 -279h-265l-358 -1683h-283z" />
<glyph unicode="U" d="M185 247q0 60 16 134l336 1581h283l-336 -1581q-5 -25 -5 -45q0 -88 100 -88q124 0 152 133l336 1581h283l-336 -1581q-88 -412 -495 -413q-334 0 -334 279z" />
<glyph unicode="V" horiz-adv-x="1051" d="M332 0l70 1268l55 694h286l-122 -1512l521 1512h286l-240 -696l-468 -1266h-388z" />
<glyph unicode="W" horiz-adv-x="1732" d="M332 0l70 1268l55 694h285l-121 -1512l521 1512h281l-121 -1512l521 1512h286l-240 -696l-468 -1266h-388l68 1013l-361 -1013h-388z" />
<glyph unicode="X" horiz-adv-x="1017" d="M40 0l535 981l-118 981h285l67 -552l300 552h285l-534 -981l117 -981h-285l-66 552l-301 -552h-285z" />
<glyph unicode="Y" horiz-adv-x="1066" d="M392 0l175 825l-4 24l-106 1113h300l30 -765l356 765h300l-580 -1113l-13 -24l-175 -825h-283z" />
<glyph unicode="Z" horiz-adv-x="880" d="M80 0l36 170l706 1513h-371l59 279h690l-36 -170l-706 -1513h401l-59 -279h-720z" />
<glyph unicode="[" horiz-adv-x="547" d="M77 -247l522 2457h387l-49 -232h-154l-423 -1992h154l-50 -233h-387z" />
<glyph unicode="\" horiz-adv-x="748" d="M451 0l26 1963h237l-26 -1963h-237z" />
<glyph unicode="]" horiz-adv-x="547" d="M-23 -247l50 233h154l423 1992h-154l49 232h387l-522 -2457h-387z" />
<glyph unicode="^" horiz-adv-x="1157" d="M349 1172l523 807h255l179 -807h-254l-115 517l-334 -517h-254z" />
<glyph unicode="_" horiz-adv-x="1032" d="M-68 -318l45 211h1032l-45 -211h-1032z" />
<glyph unicode="`" horiz-adv-x="756" d="M551 1982l16 76h222l220 -253h-222z" />
<glyph unicode="a" horiz-adv-x="1051" d="M40 0l222 611l438 1118h388l-38 -1115l-39 -614h-286l23 368h-289l-134 -368h-285zM548 614h216l44 718z" />
<glyph unicode="b" horiz-adv-x="1043" d="M130 0l368 1729h418q11 -1 17 -1q313 0 313 -250q0 -51 -13 -112l-55 -261q-36 -170 -206 -240q111 -56 111 -175q0 -31 -7 -66l-56 -260q-77 -363 -454 -363h-18zM465 246h124q123 0 148 118l56 260q3 16 3 30q0 58 -57 80q-20 8 -79 8h-89zM623 988h89q59 0 83 8 q82 27 100 109l55 261q4 20 4 36q0 81 -102 81h-124z" />
<glyph unicode="c" horiz-adv-x="1023" d="M169 229q0 49 12 107l225 1057q77 364 483 364q342 0 342 -257q0 -49 -12 -107l-49 -232h-283l49 232q4 20 4 36q0 81 -102 82q-124 0 -149 -118l-225 -1057q-4 -20 -4 -36q0 -81 102 -81q124 0 149 117l50 233h283l-50 -233q-77 -363 -484 -363q-341 0 -341 256z" />
<glyph unicode="d" d="M130 0l368 1729h418q11 -1 17 -1q313 0 313 -250q0 -51 -13 -112l-213 -1002q-77 -363 -454 -363h-18zM465 246h124q123 0 148 118l213 1002q4 20 4 36q0 81 -102 81h-124z" />
<glyph unicode="e" horiz-adv-x="924" d="M130 0l368 1729h734l-53 -246h-451l-105 -495h388l-52 -246h-388l-106 -496h451l-52 -246h-734z" />
<glyph unicode="f" horiz-adv-x="924" d="M130 0l368 1729h734l-53 -246h-451l-105 -495h388l-52 -246h-388l-158 -742h-283z" />
<glyph unicode="g" horiz-adv-x="1033" d="M169 229q0 49 12 107l225 1057q77 364 483 364q342 0 342 -257q0 -49 -12 -107l-49 -232h-283l49 232q4 20 4 36q0 81 -102 82q-124 0 -149 -118l-225 -1057q-4 -20 -4 -36q0 -81 102 -81q124 0 149 117l86 406h-143l53 246h426l-139 -652q-77 -363 -484 -363 q-341 0 -341 256z" />
<glyph unicode="h" horiz-adv-x="1073" d="M130 0l368 1729h283l-158 -741h247l158 741h283l-368 -1729h-283l158 742h-247l-158 -742h-283z" />
<glyph unicode="i" horiz-adv-x="548" d="M135 0l368 1729h283l-368 -1729h-283z" />
<glyph unicode="j" horiz-adv-x="973" d="M89 230q0 48 12 106l22 102h283l-22 -102q-4 -20 -4 -36q0 -81 103 -81q123 0 148 117l296 1393h283l-296 -1393q-77 -363 -483 -363q-342 0 -342 257z" />
<glyph unicode="k" horiz-adv-x="1057" d="M130 0l368 1729h283l-164 -769l465 769h303l-558 -864l190 -865h-303l-138 769l-163 -769h-283z" />
<glyph unicode="l" horiz-adv-x="904" d="M130 0l368 1729h283l-316 -1483h451l-52 -246h-734z" />
<glyph unicode="m" horiz-adv-x="1488" d="M130 0l368 1729h283l81 -1184l581 1184h283l-368 -1729h-271l206 971l-448 -971h-192l-43 971l-206 -971h-274z" />
<glyph unicode="n" horiz-adv-x="1073" d="M130 0l368 1729h283l54 -1003l213 999l263 4l-368 -1729h-283l-51 972l-207 -972h-272z" />
<glyph unicode="o" horiz-adv-x="1033" d="M169 229q0 49 12 107l225 1057q77 364 483 364q342 0 342 -257q0 -49 -12 -107l-225 -1057q-77 -363 -484 -363q-341 0 -341 256zM460 300q0 -81 102 -81q124 0 149 117l225 1057q4 20 4 36q0 81 -102 82q-124 0 -149 -118l-225 -1057q-4 -20 -4 -36z" />
<glyph unicode="p" horiz-adv-x="999" d="M130 0l368 1729h394q11 -1 17 -1q313 0 313 -250q0 -51 -13 -112l-55 -261q-57 -268 -344 -345q-69 -18 -193 -18h-46l-158 -742h-283zM623 988h65q59 0 83 8q82 27 100 109l55 261q4 20 4 36q0 81 -102 81h-100z" />
<glyph unicode="q" horiz-adv-x="1033" d="M168 227q0 49 13 109l225 1057q77 364 483 364q342 0 342 -257q0 -49 -12 -107l-225 -1057q-69 -324 -386 -358v-3q0 -54 297 -56l-44 -207q-251 0 -336 42q-85 43 -85 152q0 32 7 69q-279 18 -279 252zM460 300q0 -81 102 -81q124 0 149 117l225 1057q4 20 4 36 q0 81 -102 82q-124 0 -149 -118l-225 -1057q-4 -20 -4 -36z" />
<glyph unicode="r" horiz-adv-x="1044" d="M130 0l368 1729h394q11 -1 17 -1q313 0 313 -250q0 -51 -13 -112l-55 -261q-49 -228 -287 -300l147 -805h-310l-93 761l-37 -5l-161 -756h-283zM623 988h65q59 0 83 8q82 27 100 109l55 261q4 20 4 36q0 81 -102 81h-100z" />
<glyph unicode="s" horiz-adv-x="1033" d="M169 230q0 48 12 106l50 233h283l-50 -233q-4 -20 -4 -36q0 -81 103 -81q123 0 148 117l42 197q3 13 3 27q0 117 -206 266q-188 137 -188 322q0 40 9 83l35 162q77 364 483 364q342 0 342 -257q0 -49 -12 -107l-49 -232h-283l49 232q4 20 4 36q0 81 -102 82 q-124 0 -149 -118l-33 -156q-2 -11 -2 -23q0 -109 207 -260q189 -137 189 -319q0 -39 -9 -80l-47 -219q-77 -363 -483 -363q-342 0 -342 257z" />
<glyph unicode="t" horiz-adv-x="913" d="M315 0l315 1483h-265l53 246h813l-53 -246h-265l-315 -1483h-283z" />
<glyph unicode="u" d="M179 229q0 49 12 107l296 1393h283l-296 -1393q-4 -20 -4 -36q0 -81 102 -81q124 0 149 117l296 1393h283l-296 -1393q-77 -363 -484 -363q-341 0 -341 256z" />
<glyph unicode="v" horiz-adv-x="1051" d="M332 0l38 1118l38 611h286l-85 -1332l484 1332h286l-223 -613l-436 -1116h-388z" />
<glyph unicode="w" horiz-adv-x="1732" d="M332 0l38 1118l38 611h285l-84 -1332l484 1332h281l-84 -1332l484 1332h286l-223 -613l-436 -1116h-388l43 893l-336 -893h-388z" />
<glyph unicode="x" horiz-adv-x="1017" d="M40 0l510 865l-142 864h285l80 -487l287 487h285l-510 -864l142 -865h-285l-79 487l-288 -487h-285z" />
<glyph unicode="y" horiz-adv-x="1066" d="M392 0l155 727l-5 21l-134 981h300l49 -673l337 673h300l-552 -981l-12 -21l-155 -727h-283z" />
<glyph unicode="z" horiz-adv-x="880" d="M80 0l32 150l667 1333h-371l53 246h690l-32 -150l-668 -1333h401l-52 -246h-720z" />
<glyph unicode="{" horiz-adv-x="545" d="M141 31q0 61 16 135l120 566q6 26 6 47q0 84 -89 86l50 233q111 3 139 133l121 567q86 407 481 412l-49 -232q-112 -3 -140 -134l-120 -566q-42 -199 -142 -296q34 -57 34 -148q0 -65 -18 -149l-120 -566q-6 -26 -6 -48q0 -83 88 -85l-49 -233q-322 4 -322 278z" />
<glyph unicode="|" horiz-adv-x="512" d="M70 -327l556 2617h232l-556 -2617h-232z" />
<glyph unicode="}" horiz-adv-x="545" d="M-23 -247l50 233q111 3 139 133l120 566q42 199 142 297q-34 56 -34 147q0 65 18 149l120 566q6 27 6 48q0 84 -88 86l49 232q322 -4 322 -279q0 -60 -15 -133l-121 -567q-5 -26 -5 -46q0 -85 88 -87l-50 -233q-111 -2 -139 -133l-120 -566q-87 -408 -482 -413z" />
<glyph unicode="~" horiz-adv-x="1100" d="M300 940l72 83q131 154 264 154h10q88 -4 202 -106q57 -51 101 -51q31 0 55 24l79 78l129 -124l-78 -78q-114 -114 -228 -114h-12q-88 4 -200 105q-66 60 -83 63q-4 1 -9 1q-34 0 -85 -60l-72 -84z" />
<glyph unicode="&#xa1;" horiz-adv-x="565" d="M-297 -233l325 1432h283l-283 -1432h-325zM51 1404l69 325h325l-69 -325h-325z" />
<glyph unicode="&#xa2;" horiz-adv-x="1073" d="M52 -318l192 372q-65 63 -65 175q0 49 12 107l225 1057q77 364 483 364q128 0 208 -36l121 231l138 -9l-159 -306q34 -56 34 -137q0 -49 -12 -107l-50 -232h-219l-473 -914q24 -28 85 -28q124 0 149 117l50 233h283l-50 -233q-77 -363 -484 -363q-96 0 -165 20l-166 -320 zM532 609l417 805q1 8 1 15q0 81 -102 82q-124 0 -149 -118z" />
<glyph unicode="&#xa3;" horiz-adv-x="1126" d="M60 0l59 279h69q124 0 153 134l107 505h-193l34 158h193l107 505q88 413 494 413q335 0 335 -279q0 -61 -16 -134l-56 -263h-283l56 263q5 25 5 45q0 88 -100 88h-2q-122 0 -150 -133l-107 -505h331l-34 -158h-331l-78 -366q-37 -177 -120 -273h513l-59 -279h-927z" />
<glyph unicode="&#xa4;" horiz-adv-x="1398" d="M252 574l205 168q4 48 16 106l57 267q10 48 23 89l-132 167l208 170l78 -100q115 87 317 87t280 -87l122 100l133 -170l-202 -167q-4 -41 -14 -89l-57 -267q-12 -57 -29 -106l133 -168l-206 -171l-87 111q-113 -78 -305 -78t-272 77l-133 -110zM751 803q0 -88 100 -88 q124 0 152 133l57 267q5 24 5 44q0 88 -100 89h-2q-122 0 -150 -133l-57 -267q-5 -25 -5 -45z" />
<glyph unicode="&#xa5;" horiz-adv-x="1186" d="M296 500l34 159h262l34 159h-262l33 158h214l-94 986h300l30 -764l356 764h300l-514 -986h215l-33 -158h-262l-34 -159h262l-34 -159h-262l-106 -500h-283l106 500h-262z" />
<glyph unicode="&#xa6;" horiz-adv-x="512" d="M140 0l167 784h232l-167 -784h-232zM350 986l158 743h232l-158 -743h-232z" />
<glyph unicode="&#xa7;" d="M140 -67q0 54 14 120l22 106h283l-22 -106q-5 -23 -5 -42q0 -81 92 -81q110 0 136 123q6 29 6 57q0 159 -195 295q-176 121 -176 347q0 73 18 156q58 273 261 346q-120 94 -120 261q0 57 14 123q75 356 478 356q323 0 323 -250q0 -48 -12 -106l-22 -100h-283l22 100 q4 20 4 37q0 78 -92 78q-111 0 -135 -115q-6 -26 -6 -51q0 -150 201 -279q180 -116 180 -334q0 -64 -16 -138q-60 -285 -313 -340q161 -114 161 -316q0 -60 -14 -127q-81 -380 -485 -380q-319 0 -319 260zM561 807q0 -96 109 -96q134 0 164 144l9 41q6 26 6 48q0 95 -108 96 h-2q-132 0 -163 -144l-9 -41q-6 -27 -6 -48z" />
<glyph unicode="&#xa8;" horiz-adv-x="899" d="M514 1806l51 242h242l-51 -242h-242zM910 1806l51 242h243l-51 -242h-243z" />
<glyph unicode="&#xa9;" horiz-adv-x="1463" d="M224 410q0 84 22 186l171 801q129 608 740 608q507 0 507 -408q0 -85 -22 -187l-170 -802q-129 -607 -741 -607q-507 0 -507 409zM418 468q0 -284 352 -284q425 0 515 424l170 802q15 71 15 129q0 283 -351 283q-425 0 -515 -425l-171 -801q-15 -70 -15 -128zM581 515 q0 40 10 89l170 798q58 274 328 274q223 0 223 -186q0 -40 -10 -88l-17 -77h-189l17 77q3 16 3 29q0 59 -65 60q-83 0 -102 -89l-170 -798q-4 -17 -4 -30q0 -59 67 -59q82 0 101 89l16 76h189l-16 -76q-58 -275 -329 -275q-222 0 -222 186z" />
<glyph unicode="&#xaa;" horiz-adv-x="761" d="M178 521l41 193h619l-41 -193h-619zM257 925l139 367l274 670h256l-11 -669l-17 -368h-189l11 221h-191l-84 -221h-188zM584 1293h142l21 431z" />
<glyph unicode="&#xab;" horiz-adv-x="1305" d="M343 1002l664 507l-70 -330l-265 -190l185 -184l-68 -320zM832 1002l664 507l-70 -330l-265 -190l185 -184l-68 -320z" />
<glyph unicode="&#xac;" horiz-adv-x="1067" d="M314 865l50 233h807l-111 -520h-232l61 287h-575z" />
<glyph unicode="&#xad;" horiz-adv-x="786" d="M229 841l50 233h686l-50 -233h-686z" />
<glyph unicode="&#xae;" horiz-adv-x="1463" d="M224 410q0 84 22 186l171 801q129 608 740 608q507 0 507 -408q0 -85 -22 -187l-170 -802q-129 -607 -741 -607q-507 0 -507 409zM418 468q0 -284 352 -284q425 0 515 424l170 802q15 71 15 129q0 283 -351 283q-425 0 -515 -425l-171 -801q-15 -70 -15 -128zM532 350 l278 1306l278 -1h12q203 0 203 -180q0 -42 -11 -94l-42 -197q-27 -128 -141 -181q71 -41 71 -126q0 -26 -7 -56l-100 -471h-188l100 471q3 14 3 25q0 42 -36 58q-14 6 -54 6h-59l-119 -560h-188zM879 1096h59q40 0 56 6q55 20 68 82l42 197q4 17 4 30q0 59 -67 59h-83z" />
<glyph unicode="&#xaf;" horiz-adv-x="1208" d="M372 1752l45 211h1208l-45 -211h-1208z" />
<glyph unicode="&#xb0;" horiz-adv-x="877" d="M488 1642q0 44 12 99q65 308 373 308q255 0 255 -210q0 -44 -11 -98q-66 -309 -375 -309q-254 0 -254 210zM678 1700q0 -85 103 -85q126 0 153 126q4 21 4 39q0 86 -104 86q-125 0 -151 -125q-5 -22 -5 -41z" />
<glyph unicode="&#xb1;" horiz-adv-x="1047" d="M154 160l45 212h805l-45 -212h-805zM304 865l49 233h288l61 287h232l-61 -287h287l-49 -233h-287l-61 -287h-232l61 287h-288z" />
<glyph unicode="&#xb2;" horiz-adv-x="674" d="M277 831l52 246q33 154 211 265q177 110 194 187l48 224q3 15 3 27q0 51 -57 51h-1q-72 0 -89 -78l-33 -153h-165l33 153q51 241 288 241q195 0 195 -163q0 -35 -9 -78l-48 -228q-34 -158 -213 -269q-177 -110 -195 -193l-14 -69h309l-35 -163h-474z" />
<glyph unicode="&#xb3;" horiz-adv-x="679" d="M313 964q0 39 10 87l33 155h165l-33 -156q-3 -15 -3 -27q0 -53 60 -53q75 0 92 80l45 211q5 23 5 39q0 28 -15 36q-14 6 -43 6h-57l35 164h70q23 0 37 7q24 13 37 71l36 172q5 23 5 40q0 27 -15 35q-13 6 -44 6q-8 0 -18 -1q-60 -2 -77 -80l-32 -154h-165l32 155 q36 168 144 218q75 35 146 35q66 0 129 -31q71 -33 71 -134q0 -39 -11 -88l-36 -174q-25 -114 -126 -161q62 -36 62 -112q0 -23 -5 -49l-45 -210q-32 -151 -121 -206q-57 -35 -161 -38h-14q-92 0 -137 30q-56 36 -56 127z" />
<glyph unicode="&#xb4;" horiz-adv-x="756" d="M514 1805l328 253h222l-16 -76l-312 -177h-222z" />
<glyph unicode="&#xb5;" horiz-adv-x="1063" d="M60 -327l417 1962h283l-267 -1255q-5 -24 -5 -44q0 -88 100 -88q124 0 152 133l267 1254h283l-267 -1254q-79 -373 -405 -408q-20 -2 -38 -2q-93 0 -162 53l-75 -351h-283z" />
<glyph unicode="&#xb6;" horiz-adv-x="1170" d="M360 1169q0 58 18 141l75 354q43 199 126 255q64 44 253 44h625l-417 -1963h-201l374 1762h-223l-374 -1762h-201l217 1021q-194 0 -238 39q-34 30 -34 109z" />
<glyph unicode="&#xb7;" horiz-adv-x="508" d="M120 843l59 276h276l-59 -276h-276z" />
<glyph unicode="&#xb8;" horiz-adv-x="634" d="M119 -279q0 11 3 24l7 29h118l-7 -29v-4q0 -11 17 -11q20 0 23 15l21 99q1 3 1 6q0 11 -15 12h-2q-17 0 -27 -17h-113l64 156h121l-50 -87q42 20 74 20q31 0 52 -20q16 -14 16 -42q0 -12 -3 -28l-21 -99q-18 -85 -122 -93q-16 -2 -35 -2q-10 0 -20 1q-102 3 -102 70z" />
<glyph unicode="&#xb9;" horiz-adv-x="1073" d="M306 830l34 161h153l172 810h-153l35 161h316l-207 -971h153l-34 -161h-469z" />
<glyph unicode="&#xba;" horiz-adv-x="777" d="M238 506l37 175h516l-37 -175h-516zM349 1051q0 27 7 59l135 634q46 218 314 218q230 0 230 -159q0 -27 -7 -59l-135 -634q-46 -218 -315 -218q-229 0 -229 159zM541 1090q0 -51 68 -51q82 0 97 71l135 634q2 11 2 20q0 50 -68 51q-82 0 -97 -71l-135 -634q-2 -11 -2 -20 z" />
<glyph unicode="&#xbb;" horiz-adv-x="1305" d="M233 485l68 320l263 184l-183 190l70 330l448 -507zM722 485l68 320l263 184l-183 190l70 330l448 -507z" />
<glyph unicode="&#xbc;" horiz-adv-x="1609" d="M296 830l34 161h153l172 810h-153l35 161h316l-207 -971h153l-34 -161h-469zM439 0l1140 1963h175l-1139 -1963h-176zM1013 276l30 142l435 707h207l-147 -689h63l-34 -160h-63l-58 -276h-162l58 276h-329zM1207 436h169l91 429z" />
<glyph unicode="&#xbd;" horiz-adv-x="1685" d="M236 830l34 161h153l172 810h-153l35 161h316l-207 -971h153l-34 -161h-469zM379 0l1140 1963h175l-1139 -1963h-176zM1111 0l52 246q33 154 210 265q178 110 195 187l48 224q3 14 3 26q0 52 -58 52h-1q-72 0 -88 -78l-33 -153h-165l33 153q51 241 288 241 q195 0 195 -163q0 -35 -9 -78l-49 -228q-33 -158 -212 -269q-177 -110 -195 -193l-15 -69h309l-34 -163h-474z" />
<glyph unicode="&#xbe;" horiz-adv-x="1549" d="M313 964q0 39 10 87l33 155h165l-33 -156q-3 -15 -3 -27q0 -53 60 -53q75 0 92 80l45 211q5 23 5 39q0 28 -15 36q-14 6 -43 6h-57l35 164h70q23 0 37 7q24 13 37 71l36 172q5 23 5 40q0 27 -15 35q-13 6 -44 6q-8 0 -18 -1q-60 -2 -77 -80l-32 -154h-165l32 155 q36 168 144 218q75 35 146 35q66 0 129 -31q71 -33 71 -134q0 -39 -11 -88l-36 -174q-25 -114 -126 -161q62 -36 62 -112q0 -23 -5 -49l-45 -210q-32 -151 -121 -206q-57 -35 -161 -38h-14q-92 0 -137 30q-56 36 -56 127zM379 0l1140 1963h175l-1139 -1963h-176zM954 276 l30 142l434 707h207l-146 -689h63l-34 -160h-63l-59 -276h-162l59 276h-329zM1148 436h169l91 429z" />
<glyph unicode="&#xbf;" d="M-232 14q0 60 16 134l42 197q53 249 294 447t272 345l10 45h283l-15 -69q-52 -245 -293 -442t-270 -333l-40 -190q-5 -25 -5 -45q0 -88 99 -88h2q123 0 151 133l56 263h283l-56 -263q-88 -413 -495 -413q-334 0 -334 279zM423 1404l69 325h325l-69 -325h-325z" />
<glyph unicode="&#xc0;" horiz-adv-x="1091" d="M60 0l239 693l470 1269h388l-70 -1266l-56 -696h-286l33 416h-289l-144 -416h-285zM585 696h216l65 816zM636 2215l16 76h222l220 -253h-222z" />
<glyph unicode="&#xc1;" horiz-adv-x="1091" d="M60 0l239 693l470 1269h388l-70 -1266l-56 -696h-286l33 416h-289l-144 -416h-285zM585 696h216l65 816zM764 2038l328 253h222l-16 -76l-312 -177h-222z" />
<glyph unicode="&#xc2;" horiz-adv-x="1091" d="M60 0l239 693l470 1269h388l-70 -1266l-56 -696h-286l33 416h-289l-144 -416h-285zM541 2039l310 252h264l204 -252h-254l-116 93l-155 -93h-253zM585 696h216l65 816z" />
<glyph unicode="&#xc3;" horiz-adv-x="1091" d="M60 0l239 693l470 1269h388l-70 -1266l-56 -696h-286l33 416h-289l-144 -416h-285zM585 696h216l65 816zM594 2079l50 71q96 135 204 141h7q67 0 159 -66q44 -32 77 -32q28 0 48 23l55 67l112 -86l-55 -68q-86 -102 -181 -107h-7q-67 0 -157 66q-57 41 -70 43h-4 q-28 0 -66 -54l-51 -71z" />
<glyph unicode="&#xc4;" horiz-adv-x="1091" d="M60 0l239 693l470 1269h388l-70 -1266l-56 -696h-286l33 416h-289l-144 -416h-285zM585 696h216l65 816zM610 2039l51 242h242l-51 -242h-242zM1006 2039l51 242h243l-51 -242h-243z" />
<glyph unicode="&#xc5;" horiz-adv-x="1091" d="M60 0l239 693l470 1269h30q-15 28 -15 68q0 29 8 64q42 198 240 198q164 0 164 -135q0 -28 -7 -63q-18 -84 -63 -132h31l-70 -1266l-56 -696h-286l33 416h-289l-144 -416h-285zM585 696h216l65 816zM907 2068q0 -55 66 -55q81 0 98 81q3 14 3 25q0 55 -67 55 q-80 0 -97 -80q-3 -14 -3 -26z" />
<glyph unicode="&#xc6;" horiz-adv-x="1478" d="M60 0l239 693l470 1269h933l-59 -279h-451l-120 -562h388l-59 -280h-388l-120 -562h451l-59 -279h-734l88 416h-150l-144 -416h-285zM585 696h114l164 771l3 45z" />
<glyph unicode="&#xc7;" horiz-adv-x="1043" d="M185 247q0 60 16 134l255 1200q88 412 494 412q335 0 335 -279q0 -60 -16 -133l-56 -264h-283l56 264q5 24 5 44q0 88 -100 89h-2q-122 0 -150 -133l-255 -1200q-5 -25 -5 -45q0 -88 100 -88q124 0 152 133l56 264h283l-56 -264q-83 -389 -450 -412l-31 -55q41 20 73 20 q31 0 54 -20q16 -14 16 -42q0 -13 -3 -28l-21 -99q-18 -85 -124 -93q-14 -2 -34 -2q-9 0 -20 1q-101 3 -101 70q0 11 3 24l6 29h118l-6 -29v-4q0 -11 17 -11q20 0 23 15l21 99v4q0 13 -15 14h-1q-17 0 -28 -17h-114l53 126q-265 27 -265 276z" />
<glyph unicode="&#xc8;" horiz-adv-x="944" d="M130 0l417 1962h734l-59 -279h-451l-120 -562h388l-59 -280h-388l-120 -562h451l-59 -279h-734zM587 2215l16 76h222l220 -253h-222z" />
<glyph unicode="&#xc9;" horiz-adv-x="944" d="M130 0l417 1962h734l-59 -279h-451l-120 -562h388l-59 -280h-388l-120 -562h451l-59 -279h-734zM716 2038l328 253h222l-16 -76l-312 -177h-222z" />
<glyph unicode="&#xca;" horiz-adv-x="944" d="M130 0l417 1962h734l-59 -279h-451l-120 -562h388l-59 -280h-388l-120 -562h451l-59 -279h-734zM492 2039l310 252h264l204 -252h-254l-116 93l-155 -93h-253z" />
<glyph unicode="&#xcb;" horiz-adv-x="944" d="M130 0l417 1962h734l-59 -279h-451l-120 -562h388l-59 -280h-388l-120 -562h451l-59 -279h-734zM562 2039l51 242h242l-51 -242h-242zM958 2039l51 242h243l-51 -242h-243z" />
<glyph unicode="&#xcc;" horiz-adv-x="553" d="M135 0l417 1962h283l-417 -1962h-283zM367 2215l16 76h222l220 -253h-222z" />
<glyph unicode="&#xcd;" horiz-adv-x="553" d="M135 0l417 1962h283l-417 -1962h-283zM495 2038l328 253h222l-16 -76l-312 -177h-222z" />
<glyph unicode="&#xce;" horiz-adv-x="553" d="M136 0l417 1962h283l-417 -1962h-283zM272 2039l310 252h264l204 -252h-254l-116 93l-155 -93h-253z" />
<glyph unicode="&#xcf;" horiz-adv-x="553" d="M135 0l417 1962h283l-417 -1962h-283zM341 2039l51 242h242l-51 -242h-242zM737 2039l51 242h243l-51 -242h-243z" />
<glyph unicode="&#xd0;" horiz-adv-x="1115" d="M182 0l186 876h-124l45 211h124l186 875l436 -1q306 0 306 -271q0 -63 -17 -141l-241 -1137q-88 -411 -465 -411q-6 0 -18 -1h-418zM524 279h124q123 0 152 133l241 1137q6 26 6 46q0 88 -100 88h-124l-127 -596h98l-45 -211h-98z" />
<glyph unicode="&#xd1;" horiz-adv-x="1073" d="M130 0l417 1962h283l26 -1138l241 1133l263 5l-417 -1962h-283l-24 1102l-234 -1102h-272zM585 2079l50 71q96 135 204 141h7q67 0 159 -66q44 -32 77 -32q28 0 48 23l55 67l112 -86l-55 -68q-86 -102 -181 -107h-7q-67 0 -157 66q-57 41 -70 43h-4q-28 0 -66 -54 l-51 -71z" />
<glyph unicode="&#xd2;" d="M185 247q0 60 16 134l255 1200q87 412 493 412q335 0 335 -280q0 -59 -15 -132l-255 -1200q-88 -412 -495 -413q-334 0 -334 279zM479 336q0 -88 100 -88q124 0 152 133l255 1200q5 24 5 44q0 88 -100 89h-2q-122 0 -150 -133l-255 -1200q-5 -25 -5 -45zM617 2215l16 76 h222l220 -253h-222z" />
<glyph unicode="&#xd3;" d="M185 247q0 60 16 134l255 1200q87 412 493 412q335 0 335 -280q0 -59 -15 -132l-255 -1200q-88 -412 -495 -413q-334 0 -334 279zM479 336q0 -88 100 -88q124 0 152 133l255 1200q5 24 5 44q0 88 -100 89h-2q-122 0 -150 -133l-255 -1200q-5 -25 -5 -45zM744 2038 l328 253h222l-16 -76l-312 -177h-222z" />
<glyph unicode="&#xd4;" d="M185 247q0 60 16 134l255 1200q87 412 493 412q335 0 335 -280q0 -59 -15 -132l-255 -1200q-88 -412 -495 -413q-334 0 -334 279zM479 336q0 -88 100 -88q124 0 152 133l255 1200q5 24 5 44q0 88 -100 89h-2q-122 0 -150 -133l-255 -1200q-5 -25 -5 -45zM522 2039 l310 252h264l204 -252h-254l-116 93l-155 -93h-253z" />
<glyph unicode="&#xd5;" d="M185 247q0 60 16 134l255 1200q87 412 493 412q335 0 335 -280q0 -59 -15 -132l-255 -1200q-88 -412 -495 -413q-334 0 -334 279zM479 336q0 -88 100 -88q124 0 152 133l255 1200q5 24 5 44q0 88 -100 89h-2q-122 0 -150 -133l-255 -1200q-5 -25 -5 -45zM575 2079l50 71 q96 135 204 141h7q67 0 159 -66q44 -32 77 -32q28 0 48 23l55 67l112 -86l-55 -68q-86 -102 -181 -107h-7q-67 0 -157 66q-57 41 -70 43h-4q-28 0 -66 -54l-51 -71z" />
<glyph unicode="&#xd6;" d="M185 247q0 60 16 134l255 1200q87 412 493 412q335 0 335 -280q0 -59 -15 -132l-255 -1200q-88 -412 -495 -413q-334 0 -334 279zM479 336q0 -88 100 -88q124 0 152 133l255 1200q5 24 5 44q0 88 -100 89h-2q-122 0 -150 -133l-255 -1200q-5 -25 -5 -45zM591 2039l51 242 h242l-51 -242h-242zM987 2039l51 242h243l-51 -242h-243z" />
<glyph unicode="&#xd7;" horiz-adv-x="1047" d="M322 779l247 203l-160 203l199 164l160 -203l246 203l129 -165l-246 -202l160 -203l-199 -164l-160 202l-246 -203z" />
<glyph unicode="&#xd8;" d="M111 -206l126 277q-52 66 -52 176q0 61 16 134l255 1200q87 412 493 412q88 0 152 -19l58 127h141l-86 -190q70 -70 70 -198q0 -60 -15 -132l-255 -1200q-88 -412 -495 -413q-105 0 -176 27l-92 -201h-140zM482 303q18 -55 97 -55q124 0 152 133l186 878zM577 819 l394 868q-25 27 -80 27h-2q-122 0 -150 -133z" />
<glyph unicode="&#xd9;" d="M185 247q0 60 16 134l336 1581h283l-336 -1581q-5 -25 -5 -45q0 -88 100 -88q124 0 152 133l336 1581h283l-336 -1581q-88 -412 -495 -413q-334 0 -334 279zM617 2215l16 76h222l220 -253h-222z" />
<glyph unicode="&#xda;" d="M185 247q0 60 16 134l336 1581h283l-336 -1581q-5 -25 -5 -45q0 -88 100 -88q124 0 152 133l336 1581h283l-336 -1581q-88 -412 -495 -413q-334 0 -334 279zM744 2038l328 253h222l-16 -76l-312 -177h-222z" />
<glyph unicode="&#xdb;" d="M185 247q0 60 16 134l336 1581h283l-336 -1581q-5 -25 -5 -45q0 -88 100 -88q124 0 152 133l336 1581h283l-336 -1581q-88 -412 -495 -413q-334 0 -334 279zM522 2039l310 252h264l204 -252h-254l-116 93l-155 -93h-253z" />
<glyph unicode="&#xdc;" d="M185 247q0 60 16 134l336 1581h283l-336 -1581q-5 -25 -5 -45q0 -88 100 -88q124 0 152 133l336 1581h283l-336 -1581q-88 -412 -495 -413q-334 0 -334 279zM591 2039l51 242h242l-51 -242h-242zM987 2039l51 242h243l-51 -242h-243z" />
<glyph unicode="&#xdd;" horiz-adv-x="1106" d="M412 0l175 825l-4 24l-106 1113h300l30 -765l356 765h300l-580 -1113l-13 -24l-175 -825h-283zM772 2038l328 253h222l-16 -76l-312 -177h-222z" />
<glyph unicode="&#xde;" horiz-adv-x="1018" d="M60 -327l487 2289h283l-70 -327h92q6 0 18 -1h19q305 0 305 -271q0 -63 -17 -141l-62 -295q-65 -304 -354 -392q-70 -21 -194 -21h-45l-179 -841h-283zM581 793h64q59 0 84 9q83 31 103 125l62 295q6 26 6 46q0 88 -100 88h-99z" />
<glyph unicode="&#xdf;" d="M130 0l329 1550q88 412 494 412q335 0 335 -279q0 -60 -16 -133l-62 -296q-41 -193 -214 -273q107 -61 107 -189q0 -39 -10 -84l-107 -508q-88 -411 -465 -411l-28 -1l59 279q122 0 151 133l107 508q4 21 4 39q0 62 -54 86q-21 9 -80 9h-88l-179 -842h-283zM651 1121h88 q59 0 84 9q84 30 104 124l62 296q6 25 6 46q0 86 -100 87h-2q-122 0 -151 -133z" />
<glyph unicode="&#xe0;" horiz-adv-x="1091" d="M60 0l222 611l438 1118h388l-38 -1115l-39 -614h-286l23 368h-289l-134 -368h-285zM568 614h216l44 718zM636 1982l16 76h222l220 -253h-222z" />
<glyph unicode="&#xe1;" horiz-adv-x="1091" d="M60 0l222 611l438 1118h388l-38 -1115l-39 -614h-286l23 368h-289l-134 -368h-285zM568 614h216l44 718zM764 1805l328 253h222l-16 -76l-312 -177h-222z" />
<glyph unicode="&#xe2;" horiz-adv-x="1091" d="M60 0l222 611l438 1118h388l-38 -1115l-39 -614h-286l23 368h-289l-134 -368h-285zM541 1806l310 252h264l204 -252h-254l-116 93l-155 -93h-253zM568 614h216l44 718z" />
<glyph unicode="&#xe3;" horiz-adv-x="1091" d="M60 0l222 611l438 1118h388l-38 -1115l-39 -614h-286l23 368h-289l-134 -368h-285zM568 614h216l44 718zM594 1846l50 71q96 135 204 141h7q67 0 159 -66q44 -32 77 -32q28 0 48 23l55 67l112 -86l-55 -68q-86 -102 -181 -107h-7q-67 0 -157 66q-57 41 -70 43h-4 q-28 0 -66 -54l-51 -71z" />
<glyph unicode="&#xe4;" horiz-adv-x="1091" d="M60 0l222 611l438 1118h388l-38 -1115l-39 -614h-286l23 368h-289l-134 -368h-285zM568 614h216l44 718zM610 1806l51 242h242l-51 -242h-242zM1006 1806l51 242h243l-51 -242h-243z" />
<glyph unicode="&#xe5;" horiz-adv-x="1091" d="M60 0l222 611l438 1118h30q-15 28 -15 68q0 29 8 64q42 198 240 198q164 0 164 -135q0 -28 -7 -63q-18 -84 -63 -132h31l-38 -1115l-39 -614h-286l23 368h-289l-134 -368h-285zM568 614h216l44 718zM858 1834q0 -54 65 -54q81 0 99 81q3 14 3 25q0 55 -67 55 q-80 0 -97 -80q-3 -15 -3 -27z" />
<glyph unicode="&#xe6;" horiz-adv-x="1568" d="M60 0l222 611l438 1118h934l-53 -246h-451l-105 -495h388l-52 -246h-388l-106 -496h451l-52 -246h-734l78 368h-151l-134 -368h-285zM568 614h115l142 671l3 47z" />
<glyph unicode="&#xe7;" horiz-adv-x="1043" d="M180 229q0 49 12 107l225 1057q77 364 483 364q342 0 342 -257q0 -49 -12 -107l-50 -232h-283l50 232q4 19 4 35q0 82 -102 83q-124 0 -149 -118l-225 -1057q-4 -20 -4 -36q0 -81 102 -81q124 0 149 117l49 233h283l-49 -233q-77 -360 -478 -363l-34 -59q41 20 73 20 q31 0 53 -20q16 -14 16 -42q0 -12 -3 -28l-21 -99q-18 -85 -122 -93q-16 -2 -35 -2q-10 0 -20 1q-102 3 -102 70q0 11 3 24l6 29h118l-6 -29v-4q0 -11 17 -11q20 0 23 15l21 99q1 3 1 6q0 11 -15 12h-2q-17 0 -27 -17h-113l55 136q-233 37 -233 248z" />
<glyph unicode="&#xe8;" horiz-adv-x="924" d="M130 0l368 1729h734l-53 -246h-451l-105 -495h388l-52 -246h-388l-106 -496h451l-52 -246h-734zM587 1982l16 76h222l220 -253h-222z" />
<glyph unicode="&#xe9;" horiz-adv-x="924" d="M130 0l368 1729h734l-53 -246h-451l-105 -495h388l-52 -246h-388l-106 -496h451l-52 -246h-734zM716 1805l328 253h222l-16 -76l-312 -177h-222z" />
<glyph unicode="&#xea;" horiz-adv-x="924" d="M130 0l368 1729h734l-53 -246h-451l-105 -495h388l-52 -246h-388l-106 -496h451l-52 -246h-734zM492 1806l310 252h264l204 -252h-254l-116 93l-155 -93h-253z" />
<glyph unicode="&#xeb;" horiz-adv-x="924" d="M130 0l368 1729h734l-53 -246h-451l-105 -495h388l-52 -246h-388l-106 -496h451l-52 -246h-734zM562 1806l51 242h242l-51 -242h-242zM958 1806l51 242h243l-51 -242h-243z" />
<glyph unicode="&#xec;" horiz-adv-x="514" d="M135 0l368 1729h283l-368 -1729h-283zM367 1982l16 76h222l220 -253h-222z" />
<glyph unicode="&#xed;" horiz-adv-x="514" d="M135 0l368 1729h283l-368 -1729h-283zM495 1805l328 253h222l-16 -76l-312 -177h-222z" />
<glyph unicode="&#xee;" horiz-adv-x="514" d="M136 0l368 1729h283l-368 -1729h-283zM272 1806l310 252h264l204 -252h-254l-116 93l-155 -93h-253z" />
<glyph unicode="&#xef;" horiz-adv-x="514" d="M135 0l368 1729h283l-368 -1729h-283zM341 1806l51 242h242l-51 -242h-242zM737 1806l51 242h243l-51 -242h-243z" />
<glyph unicode="&#xf0;" d="M192 279q0 61 16 134l77 365q84 392 435 392q105 0 166 -59q24 112 24 205q0 111 -35 194l-254 -181l-103 164l236 168q-53 38 -158 82l117 222q190 -60 280 -134l197 140l102 -164l-175 -125q74 -138 74 -335q0 -134 -34 -295l-136 -639q-88 -413 -494 -413 q-335 0 -335 279zM486 368q0 -88 101 -88q123 0 151 133l77 365q6 29 6 51q0 79 -76 82q-15 1 -28 1q-53 0 -78 -10q-48 -19 -71 -124l-77 -365q-5 -24 -5 -45z" />
<glyph unicode="&#xf1;" horiz-adv-x="1073" d="M130 0l368 1729h283l54 -1003l213 999l263 4l-368 -1729h-283l-51 972l-207 -972h-272zM585 1846l50 71q96 135 204 141h7q67 0 159 -66q44 -32 77 -32q28 0 48 23l55 67l112 -86l-55 -68q-86 -102 -181 -107h-7q-67 0 -157 66q-57 41 -70 43h-4q-28 0 -66 -54l-51 -71z " />
<glyph unicode="&#xf2;" d="M179 229q0 49 12 107l225 1057q77 364 483 364q342 0 342 -257q0 -49 -12 -107l-225 -1057q-77 -363 -484 -363q-341 0 -341 256zM470 300q0 -81 102 -81q124 0 149 117l225 1057q4 20 4 36q0 81 -102 82q-124 0 -149 -118l-225 -1057q-4 -20 -4 -36zM617 1982l16 76h222 l220 -253h-222z" />
<glyph unicode="&#xf3;" d="M179 229q0 49 12 107l225 1057q77 364 483 364q342 0 342 -257q0 -49 -12 -107l-225 -1057q-77 -363 -484 -363q-341 0 -341 256zM470 300q0 -81 102 -81q124 0 149 117l225 1057q4 20 4 36q0 81 -102 82q-124 0 -149 -118l-225 -1057q-4 -20 -4 -36zM744 1805l328 253 h222l-16 -76l-312 -177h-222z" />
<glyph unicode="&#xf4;" d="M179 229q0 49 12 107l225 1057q77 364 483 364q342 0 342 -257q0 -49 -12 -107l-225 -1057q-77 -363 -484 -363q-341 0 -341 256zM470 300q0 -81 102 -81q124 0 149 117l225 1057q4 20 4 36q0 81 -102 82q-124 0 -149 -118l-225 -1057q-4 -20 -4 -36zM522 1806l310 252 h264l204 -252h-254l-116 93l-155 -93h-253z" />
<glyph unicode="&#xf5;" d="M179 229q0 49 12 107l225 1057q77 364 483 364q342 0 342 -257q0 -49 -12 -107l-225 -1057q-77 -363 -484 -363q-341 0 -341 256zM470 300q0 -81 102 -81q124 0 149 117l225 1057q4 20 4 36q0 81 -102 82q-124 0 -149 -118l-225 -1057q-4 -20 -4 -36zM575 1846l50 71 q96 135 204 141h7q67 0 159 -66q44 -32 77 -32q28 0 48 23l55 67l112 -86l-55 -68q-86 -102 -181 -107h-7q-67 0 -157 66q-57 41 -70 43h-4q-28 0 -66 -54l-51 -71z" />
<glyph unicode="&#xf6;" d="M179 229q0 49 12 107l225 1057q77 364 483 364q342 0 342 -257q0 -49 -12 -107l-225 -1057q-77 -363 -484 -363q-341 0 -341 256zM470 300q0 -81 102 -81q124 0 149 117l225 1057q4 20 4 36q0 81 -102 82q-124 0 -149 -118l-225 -1057q-4 -20 -4 -36zM591 1806l51 242 h242l-51 -242h-242zM987 1806l51 242h243l-51 -242h-243z" />
<glyph unicode="&#xf7;" horiz-adv-x="1045" d="M304 866l50 234h805l-50 -234h-805zM360 319l69 325h324l-69 -325h-324zM574 1324l68 324h324l-68 -324h-324z" />
<glyph unicode="&#xf8;" d="M51 -318l193 372q-65 63 -65 175q0 49 12 107l225 1057q77 364 483 364q128 0 208 -36l120 231l138 -9l-158 -305q34 -56 34 -137q0 -49 -12 -108l-225 -1057q-77 -363 -484 -363q-96 0 -166 20l-166 -320zM486 248q25 -29 86 -29q124 0 149 117l132 619zM533 612 l417 805q1 6 1 12q0 81 -103 82q-124 0 -149 -118z" />
<glyph unicode="&#xf9;" d="M179 229q0 49 12 107l296 1393h283l-296 -1393q-4 -20 -4 -36q0 -81 102 -81q124 0 149 117l296 1393h283l-296 -1393q-77 -363 -484 -363q-341 0 -341 256zM617 1982l16 76h222l220 -253h-222z" />
<glyph unicode="&#xfa;" d="M179 229q0 49 12 107l296 1393h283l-296 -1393q-4 -20 -4 -36q0 -81 102 -81q124 0 149 117l296 1393h283l-296 -1393q-77 -363 -484 -363q-341 0 -341 256zM744 1805l328 253h222l-16 -76l-312 -177h-222z" />
<glyph unicode="&#xfb;" d="M179 229q0 49 12 107l296 1393h283l-296 -1393q-4 -20 -4 -36q0 -81 102 -81q124 0 149 117l296 1393h283l-296 -1393q-77 -363 -484 -363q-341 0 -341 256zM522 1806l310 252h264l204 -252h-254l-116 93l-155 -93h-253z" />
<glyph unicode="&#xfc;" d="M179 229q0 49 12 107l296 1393h283l-296 -1393q-4 -20 -4 -36q0 -81 102 -81q124 0 149 117l296 1393h283l-296 -1393q-77 -363 -484 -363q-341 0 -341 256zM591 1806l51 242h242l-51 -242h-242zM987 1806l51 242h243l-51 -242h-243z" />
<glyph unicode="&#xfd;" horiz-adv-x="1106" d="M412 0l155 727l-5 21l-134 981h300l49 -673l337 673h300l-552 -981l-12 -21l-155 -727h-283zM772 1805l328 253h222l-16 -76l-312 -177h-222z" />
<glyph unicode="&#xfe;" horiz-adv-x="1010" d="M60 -327l487 2289h283l-70 -327h92q6 0 18 -1h19q305 0 305 -271q0 -63 -17 -141l-62 -295q-65 -304 -354 -392q-70 -21 -194 -21h-45l-179 -841h-283zM581 793h64q59 0 84 9q83 31 103 125l62 295q6 26 6 46q0 88 -100 88h-99z" />
<glyph unicode="&#xff;" horiz-adv-x="1106" d="M412 0l155 727l-5 21l-134 981h300l49 -673l337 673h300l-552 -981l-12 -21l-155 -727h-283zM618 1806l51 242h242l-51 -242h-242zM1014 1806l51 242h243l-51 -242h-243z" />
<glyph unicode="&#x2c6;" horiz-adv-x="1109" d="M550 1806l310 252h264l204 -252h-254l-116 93l-155 -93h-253z" />
<glyph unicode="&#x2dc;" horiz-adv-x="947" d="M522 1846l50 71q96 135 204 141h7q67 0 159 -66q44 -32 77 -32q28 0 48 23l55 67l112 -86l-55 -68q-86 -102 -181 -107h-7q-67 0 -157 66q-57 41 -70 43h-4q-28 0 -66 -54l-51 -71z" />
<glyph unicode="&#x2000;" horiz-adv-x="1146" />
<glyph unicode="&#x2001;" horiz-adv-x="2292" />
<glyph unicode="&#x2002;" horiz-adv-x="1146" />
<glyph unicode="&#x2003;" horiz-adv-x="2292" />
<glyph unicode="&#x2004;" horiz-adv-x="764" />
<glyph unicode="&#x2005;" horiz-adv-x="573" />
<glyph unicode="&#x2006;" horiz-adv-x="382" />
<glyph unicode="&#x2007;" horiz-adv-x="382" />
<glyph unicode="&#x2008;" horiz-adv-x="286" />
<glyph unicode="&#x2009;" horiz-adv-x="458" />
<glyph unicode="&#x200a;" horiz-adv-x="127" />
<glyph unicode="&#x2010;" horiz-adv-x="786" d="M229 841l50 233h686l-50 -233h-686z" />
<glyph unicode="&#x2011;" horiz-adv-x="786" d="M229 841l50 233h686l-50 -233h-686z" />
<glyph unicode="&#x2012;" horiz-adv-x="786" d="M229 841l50 233h686l-50 -233h-686z" />
<glyph unicode="&#x2013;" horiz-adv-x="1172" d="M229 841l50 233h1060l-50 -233h-1060z" />
<glyph unicode="&#x2014;" horiz-adv-x="2048" d="M229 841l50 233h1963l-50 -233h-1963z" />
<glyph unicode="&#x2018;" horiz-adv-x="557" d="M409 1311l61 288l185 364h184l-128 -327h117l-69 -325h-350z" />
<glyph unicode="&#x2019;" horiz-adv-x="610" d="M468 1311l128 327h-117l69 325h350l-62 -288l-184 -364h-184z" />
<glyph unicode="&#x201a;" horiz-adv-x="557" d="M110 -327l128 327h-118l69 325h351l-61 -287l-186 -365h-183z" />
<glyph unicode="&#x201c;" horiz-adv-x="1047" d="M409 1311l61 288l185 364h184l-128 -327h117l-69 -325h-350zM899 1311l61 288l185 364h184l-128 -327h117l-69 -325h-350z" />
<glyph unicode="&#x201d;" horiz-adv-x="1100" d="M468 1311l128 327h-117l69 325h350l-62 -288l-184 -364h-184zM958 1311l128 327h-117l69 325h350l-62 -288l-184 -364h-184z" />
<glyph unicode="&#x201e;" horiz-adv-x="1100" d="M468 -326l128 327h-117l69 325h350l-62 -288l-184 -364h-184zM958 -326l128 327h-117l69 325h350l-62 -288l-184 -364h-184z" />
<glyph unicode="&#x2022;" horiz-adv-x="987" d="M330 903q0 38 9 80q32 151 161 257q129 107 279 107q151 0 236 -107q60 -77 60 -176q0 -39 -9 -81q-32 -150 -161 -257q-129 -106 -280 -106q-150 0 -235 106q-60 77 -60 177z" />
<glyph unicode="&#x2026;" horiz-adv-x="2048" d="M120 0l69 325h325l-69 -325h-325zM803 0l69 325h325l-69 -325h-325zM1486 0l69 325h325l-69 -325h-325z" />
<glyph unicode="&#x202f;" horiz-adv-x="458" />
<glyph unicode="&#x2039;" horiz-adv-x="816" d="M343 1002l664 507l-70 -330l-265 -190l185 -184l-68 -320z" />
<glyph unicode="&#x203a;" horiz-adv-x="816" d="M233 485l68 320l263 184l-183 190l70 330l448 -507z" />
<glyph unicode="&#x205f;" horiz-adv-x="573" />
<glyph unicode="&#x20ac;" horiz-adv-x="1094" d="M188 743l33 158h141l34 160h-141l34 158h141l77 362q87 413 493 413q335 0 335 -280q0 -60 -15 -133l-56 -263h-283l56 263q5 25 5 45q0 88 -100 88h-2q-122 0 -150 -133l-77 -362h382l-34 -158h-382l-34 -160h382l-33 -158h-382l-77 -362q-6 -25 -6 -46q0 -87 100 -87 q124 0 153 133l56 264h283l-56 -264q-88 -412 -495 -412q-334 0 -334 278q0 61 16 134l77 362h-141z" />
<glyph unicode="&#x2122;" horiz-adv-x="1108" d="M380 944l143 673h-119l24 112h366l-24 -112h-119l-143 -673h-128zM680 945l167 785h127l36 -538l262 538h128l-167 -785h-122l94 440l-203 -440h-87l-18 440l-94 -440h-123z" />
<glyph unicode="&#x25fc;" horiz-adv-x="1730" d="M0 0v1730h1730v-1730h-1730z" />
</font>
</defs>
</svg>
